<mxfile host="app.diagrams.net" agent="Mozilla/5.0 (Windows NT 10.0; Win64; x64) AppleWebKit/537.36 (KHTML, like Gecko) Chrome/135.0.0.0 Safari/537.36" version="26.2.10">
  <diagram name="Página-1" id="zaccTUnuGCBbCXdNSI78">
    <mxGraphModel dx="2780" dy="1325" grid="1" gridSize="10" guides="1" tooltips="1" connect="1" arrows="1" fold="1" page="0" pageScale="1" pageWidth="827" pageHeight="1169" math="0" shadow="0">
      <root>
        <mxCell id="0" />
        <mxCell id="1" parent="0" />
        <object label="&lt;font style=&quot;font-size: 12px&quot;&gt;Orçamento/Forecast - RH&lt;br&gt;&lt;/font&gt;" id="SP4KQLIQNHfuo-DQ70CP-25">
          <mxCell style="swimlane;html=1;childLayout=stackLayout;horizontal=1;startSize=20;horizontalStack=0;rounded=0;shadow=0;labelBackgroundColor=none;strokeWidth=1;fontFamily=Verdana;fontSize=8;align=center;fillColor=#E6E6E6;" vertex="1" parent="1">
            <mxGeometry x="-140" y="1" width="2270" height="470" as="geometry">
              <mxRectangle x="180" y="74" width="230" height="20" as="alternateBounds" />
            </mxGeometry>
          </mxCell>
        </object>
        <mxCell id="SP4KQLIQNHfuo-DQ70CP-27" value="TM1" style="swimlane;html=1;startSize=20;horizontal=0;fillColor=#CCCCFF;" vertex="1" parent="SP4KQLIQNHfuo-DQ70CP-25">
          <mxGeometry y="20" width="2270" height="150" as="geometry">
            <mxRectangle y="170" width="760" height="20" as="alternateBounds" />
          </mxGeometry>
        </mxCell>
        <mxCell id="SP4KQLIQNHfuo-DQ70CP-28" value="" style="ellipse;whiteSpace=wrap;html=1;rounded=0;shadow=0;labelBackgroundColor=none;strokeWidth=1;fontFamily=Verdana;fontSize=8;align=center;fillColor=#B3FF66;" vertex="1" parent="SP4KQLIQNHfuo-DQ70CP-27">
          <mxGeometry x="34" y="52.5" width="30" height="30" as="geometry" />
        </mxCell>
        <mxCell id="SP4KQLIQNHfuo-DQ70CP-33" value="" style="ellipse;whiteSpace=wrap;html=1;rounded=0;shadow=0;labelBackgroundColor=none;strokeWidth=1;fontFamily=Verdana;fontSize=8;align=center;fillColor=#EA6B66;" vertex="1" parent="SP4KQLIQNHfuo-DQ70CP-27">
          <mxGeometry x="2230" y="52" width="30" height="30" as="geometry" />
        </mxCell>
        <mxCell id="SP4KQLIQNHfuo-DQ70CP-72" value="Atualização Mapa Centro de Custos" style="rounded=1;whiteSpace=wrap;html=1;shadow=0;labelBackgroundColor=none;strokeWidth=1;fontFamily=Verdana;fontSize=8;align=center;fillColor=#CCE5FF;" vertex="1" parent="SP4KQLIQNHfuo-DQ70CP-27">
          <mxGeometry x="190" y="49" width="70" height="37" as="geometry" />
        </mxCell>
        <mxCell id="SP4KQLIQNHfuo-DQ70CP-77" value="" style="shape=umlActor;verticalLabelPosition=bottom;verticalAlign=top;html=1;outlineConnect=0;" vertex="1" parent="SP4KQLIQNHfuo-DQ70CP-27">
          <mxGeometry x="250" y="72" width="10" height="14" as="geometry" />
        </mxCell>
        <mxCell id="SP4KQLIQNHfuo-DQ70CP-80" style="edgeStyle=orthogonalEdgeStyle;rounded=0;orthogonalLoop=1;jettySize=auto;html=1;exitX=1;exitY=0.5;exitDx=0;exitDy=0;fontSize=10;entryX=0.5;entryY=0;entryDx=0;entryDy=0;" edge="1" parent="SP4KQLIQNHfuo-DQ70CP-27" target="SP4KQLIQNHfuo-DQ70CP-78">
          <mxGeometry relative="1" as="geometry">
            <mxPoint x="260" y="69" as="sourcePoint" />
            <mxPoint x="326" y="190" as="targetPoint" />
            <Array as="points">
              <mxPoint x="305" y="69" />
            </Array>
          </mxGeometry>
        </mxCell>
        <mxCell id="SP4KQLIQNHfuo-DQ70CP-81" value="Atualização Mapa Contas Contábeis" style="rounded=1;whiteSpace=wrap;html=1;shadow=0;labelBackgroundColor=none;strokeWidth=1;fontFamily=Verdana;fontSize=8;align=center;fillColor=#CCE5FF;" vertex="1" parent="SP4KQLIQNHfuo-DQ70CP-27">
          <mxGeometry x="360" y="49" width="70" height="37" as="geometry" />
        </mxCell>
        <mxCell id="SP4KQLIQNHfuo-DQ70CP-82" value="" style="shape=umlActor;verticalLabelPosition=bottom;verticalAlign=top;html=1;outlineConnect=0;" vertex="1" parent="SP4KQLIQNHfuo-DQ70CP-27">
          <mxGeometry x="420" y="72" width="10" height="14" as="geometry" />
        </mxCell>
        <mxCell id="SP4KQLIQNHfuo-DQ70CP-83" style="edgeStyle=orthogonalEdgeStyle;rounded=0;orthogonalLoop=1;jettySize=auto;html=1;exitX=1;exitY=0.5;exitDx=0;exitDy=0;fontSize=10;entryX=0;entryY=0.5;entryDx=0;entryDy=0;" edge="1" parent="SP4KQLIQNHfuo-DQ70CP-27" target="SP4KQLIQNHfuo-DQ70CP-81">
          <mxGeometry relative="1" as="geometry">
            <mxPoint x="310" y="189" as="sourcePoint" />
            <mxPoint x="376" y="310" as="targetPoint" />
            <Array as="points">
              <mxPoint x="320" y="189" />
              <mxPoint x="320" y="68" />
            </Array>
          </mxGeometry>
        </mxCell>
        <mxCell id="SP4KQLIQNHfuo-DQ70CP-86" style="edgeStyle=orthogonalEdgeStyle;rounded=0;orthogonalLoop=1;jettySize=auto;html=1;exitX=1;exitY=0.5;exitDx=0;exitDy=0;fontSize=10;entryX=0.371;entryY=0.041;entryDx=0;entryDy=0;entryPerimeter=0;" edge="1" parent="SP4KQLIQNHfuo-DQ70CP-27" target="SP4KQLIQNHfuo-DQ70CP-84">
          <mxGeometry relative="1" as="geometry">
            <mxPoint x="430" y="69" as="sourcePoint" />
            <mxPoint x="475" y="189" as="targetPoint" />
            <Array as="points">
              <mxPoint x="475" y="69" />
            </Array>
          </mxGeometry>
        </mxCell>
        <mxCell id="SP4KQLIQNHfuo-DQ70CP-87" value="Atualização Mapa Cargos" style="rounded=1;whiteSpace=wrap;html=1;shadow=0;labelBackgroundColor=none;strokeWidth=1;fontFamily=Verdana;fontSize=8;align=center;fillColor=#CCE5FF;" vertex="1" parent="SP4KQLIQNHfuo-DQ70CP-27">
          <mxGeometry x="525" y="49" width="70" height="37" as="geometry" />
        </mxCell>
        <mxCell id="SP4KQLIQNHfuo-DQ70CP-88" value="" style="shape=umlActor;verticalLabelPosition=bottom;verticalAlign=top;html=1;outlineConnect=0;" vertex="1" parent="SP4KQLIQNHfuo-DQ70CP-27">
          <mxGeometry x="585" y="72" width="10" height="14" as="geometry" />
        </mxCell>
        <mxCell id="SP4KQLIQNHfuo-DQ70CP-94" value="Atualização Mapa Eventos" style="rounded=1;whiteSpace=wrap;html=1;shadow=0;labelBackgroundColor=none;strokeWidth=1;fontFamily=Verdana;fontSize=8;align=center;fillColor=#CCE5FF;" vertex="1" parent="SP4KQLIQNHfuo-DQ70CP-27">
          <mxGeometry x="690" y="49.5" width="70" height="37" as="geometry" />
        </mxCell>
        <mxCell id="SP4KQLIQNHfuo-DQ70CP-95" value="" style="shape=umlActor;verticalLabelPosition=bottom;verticalAlign=top;html=1;outlineConnect=0;" vertex="1" parent="SP4KQLIQNHfuo-DQ70CP-27">
          <mxGeometry x="750" y="72.5" width="10" height="14" as="geometry" />
        </mxCell>
        <mxCell id="SP4KQLIQNHfuo-DQ70CP-102" style="edgeStyle=orthogonalEdgeStyle;rounded=0;orthogonalLoop=1;jettySize=auto;html=1;fontSize=10;entryX=0;entryY=0.5;entryDx=0;entryDy=0;exitX=-0.004;exitY=0.301;exitDx=0;exitDy=0;exitPerimeter=0;" edge="1" parent="SP4KQLIQNHfuo-DQ70CP-27" source="SP4KQLIQNHfuo-DQ70CP-99">
          <mxGeometry relative="1" as="geometry">
            <mxPoint x="690" y="199" as="sourcePoint" />
            <mxPoint x="690" y="69" as="targetPoint" />
            <Array as="points">
              <mxPoint x="690" y="199" />
              <mxPoint x="665" y="199" />
              <mxPoint x="665" y="69" />
            </Array>
          </mxGeometry>
        </mxCell>
        <mxCell id="SP4KQLIQNHfuo-DQ70CP-111" value="Atualização Paradigma" style="rounded=1;whiteSpace=wrap;html=1;shadow=0;labelBackgroundColor=none;strokeWidth=1;fontFamily=Verdana;fontSize=8;align=center;fillColor=#CCE5FF;" vertex="1" parent="SP4KQLIQNHfuo-DQ70CP-27">
          <mxGeometry x="860" y="49" width="70" height="37" as="geometry" />
        </mxCell>
        <mxCell id="SP4KQLIQNHfuo-DQ70CP-112" value="" style="shape=umlActor;verticalLabelPosition=bottom;verticalAlign=top;html=1;outlineConnect=0;" vertex="1" parent="SP4KQLIQNHfuo-DQ70CP-27">
          <mxGeometry x="920" y="72" width="10" height="14" as="geometry" />
        </mxCell>
        <mxCell id="SP4KQLIQNHfuo-DQ70CP-113" style="edgeStyle=orthogonalEdgeStyle;rounded=0;orthogonalLoop=1;jettySize=auto;html=1;exitX=1;exitY=0.5;exitDx=0;exitDy=0;fontSize=10;entryX=0;entryY=0.5;entryDx=0;entryDy=0;" edge="1" parent="SP4KQLIQNHfuo-DQ70CP-27" target="SP4KQLIQNHfuo-DQ70CP-111">
          <mxGeometry relative="1" as="geometry">
            <mxPoint x="810" y="189" as="sourcePoint" />
            <mxPoint x="876" y="310" as="targetPoint" />
            <Array as="points">
              <mxPoint x="820" y="189" />
              <mxPoint x="820" y="68" />
            </Array>
          </mxGeometry>
        </mxCell>
        <mxCell id="SP4KQLIQNHfuo-DQ70CP-117" value="Atualização Premissas Gerais" style="rounded=1;whiteSpace=wrap;html=1;shadow=0;labelBackgroundColor=none;strokeWidth=1;fontFamily=Verdana;fontSize=8;align=center;fillColor=#CCE5FF;" vertex="1" parent="SP4KQLIQNHfuo-DQ70CP-27">
          <mxGeometry x="1030" y="49" width="70" height="37" as="geometry" />
        </mxCell>
        <mxCell id="SP4KQLIQNHfuo-DQ70CP-118" value="" style="shape=umlActor;verticalLabelPosition=bottom;verticalAlign=top;html=1;outlineConnect=0;" vertex="1" parent="SP4KQLIQNHfuo-DQ70CP-27">
          <mxGeometry x="1090" y="72" width="10" height="14" as="geometry" />
        </mxCell>
        <mxCell id="SP4KQLIQNHfuo-DQ70CP-119" style="edgeStyle=orthogonalEdgeStyle;rounded=0;orthogonalLoop=1;jettySize=auto;html=1;exitX=1;exitY=0.5;exitDx=0;exitDy=0;fontSize=10;entryX=0;entryY=0.5;entryDx=0;entryDy=0;" edge="1" parent="SP4KQLIQNHfuo-DQ70CP-27" target="SP4KQLIQNHfuo-DQ70CP-117">
          <mxGeometry relative="1" as="geometry">
            <mxPoint x="980" y="189" as="sourcePoint" />
            <mxPoint x="1046" y="310" as="targetPoint" />
            <Array as="points">
              <mxPoint x="990" y="189" />
              <mxPoint x="990" y="68" />
            </Array>
          </mxGeometry>
        </mxCell>
        <mxCell id="SP4KQLIQNHfuo-DQ70CP-120" value="Atualização Manual de Premissas Gerais" style="rounded=1;whiteSpace=wrap;html=1;shadow=0;labelBackgroundColor=none;strokeWidth=1;fontFamily=Verdana;fontSize=8;align=center;fillColor=#CCE5FF;" vertex="1" parent="SP4KQLIQNHfuo-DQ70CP-27">
          <mxGeometry x="1150" y="49" width="70" height="37" as="geometry" />
        </mxCell>
        <mxCell id="SP4KQLIQNHfuo-DQ70CP-121" value="" style="shape=umlActor;verticalLabelPosition=bottom;verticalAlign=top;html=1;outlineConnect=0;" vertex="1" parent="SP4KQLIQNHfuo-DQ70CP-27">
          <mxGeometry x="1210" y="72" width="10" height="14" as="geometry" />
        </mxCell>
        <mxCell id="SP4KQLIQNHfuo-DQ70CP-124" value="" style="endArrow=classic;html=1;rounded=0;fontSize=12;startSize=8;endSize=8;curved=1;exitX=1;exitY=0.5;exitDx=0;exitDy=0;entryX=0;entryY=0.5;entryDx=0;entryDy=0;" edge="1" parent="SP4KQLIQNHfuo-DQ70CP-27" source="SP4KQLIQNHfuo-DQ70CP-117" target="SP4KQLIQNHfuo-DQ70CP-120">
          <mxGeometry width="50" height="50" relative="1" as="geometry">
            <mxPoint x="1090" y="129" as="sourcePoint" />
            <mxPoint x="1140" y="79" as="targetPoint" />
          </mxGeometry>
        </mxCell>
        <mxCell id="SP4KQLIQNHfuo-DQ70CP-145" value="Atualização de vagas em &lt;br&gt;aberto" style="rounded=1;whiteSpace=wrap;html=1;shadow=0;labelBackgroundColor=none;strokeWidth=1;fontFamily=Verdana;fontSize=8;align=center;fillColor=#CCE5FF;" vertex="1" parent="SP4KQLIQNHfuo-DQ70CP-27">
          <mxGeometry x="1320" y="49" width="70" height="37" as="geometry" />
        </mxCell>
        <mxCell id="SP4KQLIQNHfuo-DQ70CP-146" value="" style="shape=umlActor;verticalLabelPosition=bottom;verticalAlign=top;html=1;outlineConnect=0;" vertex="1" parent="SP4KQLIQNHfuo-DQ70CP-27">
          <mxGeometry x="1380" y="72" width="10" height="14" as="geometry" />
        </mxCell>
        <mxCell id="SP4KQLIQNHfuo-DQ70CP-147" style="edgeStyle=orthogonalEdgeStyle;rounded=0;orthogonalLoop=1;jettySize=auto;html=1;exitX=1;exitY=0.5;exitDx=0;exitDy=0;fontSize=10;entryX=0;entryY=0.5;entryDx=0;entryDy=0;" edge="1" parent="SP4KQLIQNHfuo-DQ70CP-27" target="SP4KQLIQNHfuo-DQ70CP-145">
          <mxGeometry relative="1" as="geometry">
            <mxPoint x="1270" y="189" as="sourcePoint" />
            <mxPoint x="1336" y="310" as="targetPoint" />
            <Array as="points">
              <mxPoint x="1280" y="189" />
              <mxPoint x="1280" y="68" />
            </Array>
          </mxGeometry>
        </mxCell>
        <mxCell id="SP4KQLIQNHfuo-DQ70CP-161" value="Atualização de Colaboradores por centro de custo" style="rounded=1;whiteSpace=wrap;html=1;shadow=0;labelBackgroundColor=none;strokeWidth=1;fontFamily=Verdana;fontSize=8;align=center;fillColor=#CCE5FF;" vertex="1" parent="SP4KQLIQNHfuo-DQ70CP-27">
          <mxGeometry x="1610" y="40" width="70" height="46" as="geometry" />
        </mxCell>
        <mxCell id="SP4KQLIQNHfuo-DQ70CP-162" value="" style="shape=umlActor;verticalLabelPosition=bottom;verticalAlign=top;html=1;outlineConnect=0;" vertex="1" parent="SP4KQLIQNHfuo-DQ70CP-27">
          <mxGeometry x="1668" y="72" width="10" height="14" as="geometry" />
        </mxCell>
        <mxCell id="SP4KQLIQNHfuo-DQ70CP-163" style="edgeStyle=orthogonalEdgeStyle;rounded=0;orthogonalLoop=1;jettySize=auto;html=1;exitX=1;exitY=0.5;exitDx=0;exitDy=0;fontSize=10;entryX=-0.002;entryY=0.633;entryDx=0;entryDy=0;entryPerimeter=0;" edge="1" parent="SP4KQLIQNHfuo-DQ70CP-27" target="SP4KQLIQNHfuo-DQ70CP-161">
          <mxGeometry relative="1" as="geometry">
            <mxPoint x="1580" y="189" as="sourcePoint" />
            <mxPoint x="1600" y="59" as="targetPoint" />
            <Array as="points">
              <mxPoint x="1590" y="189" />
              <mxPoint x="1590" y="69" />
              <mxPoint x="1610" y="69" />
            </Array>
          </mxGeometry>
        </mxCell>
        <mxCell id="SP4KQLIQNHfuo-DQ70CP-167" value="Atualização de Colaboradores por centro de custo" style="rounded=1;whiteSpace=wrap;html=1;shadow=0;labelBackgroundColor=none;strokeWidth=1;fontFamily=Verdana;fontSize=8;align=center;fillColor=#CCE5FF;" vertex="1" parent="SP4KQLIQNHfuo-DQ70CP-27">
          <mxGeometry x="1760" y="40" width="70" height="46" as="geometry" />
        </mxCell>
        <mxCell id="SP4KQLIQNHfuo-DQ70CP-168" value="" style="shape=umlActor;verticalLabelPosition=bottom;verticalAlign=top;html=1;outlineConnect=0;" vertex="1" parent="SP4KQLIQNHfuo-DQ70CP-27">
          <mxGeometry x="1818" y="72" width="10" height="14" as="geometry" />
        </mxCell>
        <mxCell id="SP4KQLIQNHfuo-DQ70CP-169" style="edgeStyle=orthogonalEdgeStyle;rounded=0;orthogonalLoop=1;jettySize=auto;html=1;exitX=1;exitY=0.5;exitDx=0;exitDy=0;fontSize=10;entryX=-0.002;entryY=0.633;entryDx=0;entryDy=0;entryPerimeter=0;" edge="1" parent="SP4KQLIQNHfuo-DQ70CP-27" target="SP4KQLIQNHfuo-DQ70CP-167">
          <mxGeometry relative="1" as="geometry">
            <mxPoint x="1730" y="189" as="sourcePoint" />
            <mxPoint x="1750" y="59" as="targetPoint" />
            <Array as="points">
              <mxPoint x="1740" y="189" />
              <mxPoint x="1740" y="69" />
              <mxPoint x="1760" y="69" />
            </Array>
          </mxGeometry>
        </mxCell>
        <mxCell id="SP4KQLIQNHfuo-DQ70CP-175" value="Atualização de aumento de quadro" style="rounded=1;whiteSpace=wrap;html=1;shadow=0;labelBackgroundColor=none;strokeWidth=1;fontFamily=Verdana;fontSize=8;align=center;fillColor=#CCE5FF;" vertex="1" parent="SP4KQLIQNHfuo-DQ70CP-27">
          <mxGeometry x="1930" y="49" width="70" height="37" as="geometry" />
        </mxCell>
        <mxCell id="SP4KQLIQNHfuo-DQ70CP-176" value="" style="shape=umlActor;verticalLabelPosition=bottom;verticalAlign=top;html=1;outlineConnect=0;" vertex="1" parent="SP4KQLIQNHfuo-DQ70CP-27">
          <mxGeometry x="1990" y="72" width="10" height="14" as="geometry" />
        </mxCell>
        <mxCell id="SP4KQLIQNHfuo-DQ70CP-177" style="edgeStyle=orthogonalEdgeStyle;rounded=0;orthogonalLoop=1;jettySize=auto;html=1;exitX=1;exitY=0.5;exitDx=0;exitDy=0;fontSize=10;entryX=0;entryY=0.5;entryDx=0;entryDy=0;" edge="1" parent="SP4KQLIQNHfuo-DQ70CP-27" target="SP4KQLIQNHfuo-DQ70CP-175">
          <mxGeometry relative="1" as="geometry">
            <mxPoint x="1880" y="189" as="sourcePoint" />
            <mxPoint x="1946" y="310" as="targetPoint" />
            <Array as="points">
              <mxPoint x="1890" y="189" />
              <mxPoint x="1890" y="68" />
            </Array>
          </mxGeometry>
        </mxCell>
        <mxCell id="SP4KQLIQNHfuo-DQ70CP-181" value="Inserção Manual de Benefícios" style="rounded=1;whiteSpace=wrap;html=1;shadow=0;labelBackgroundColor=none;strokeWidth=1;fontFamily=Verdana;fontSize=8;align=center;fillColor=#CCE5FF;" vertex="1" parent="SP4KQLIQNHfuo-DQ70CP-27">
          <mxGeometry x="2100" y="49" width="70" height="37" as="geometry" />
        </mxCell>
        <mxCell id="SP4KQLIQNHfuo-DQ70CP-182" value="" style="shape=umlActor;verticalLabelPosition=bottom;verticalAlign=top;html=1;outlineConnect=0;" vertex="1" parent="SP4KQLIQNHfuo-DQ70CP-27">
          <mxGeometry x="2160" y="72" width="10" height="14" as="geometry" />
        </mxCell>
        <mxCell id="SP4KQLIQNHfuo-DQ70CP-183" style="edgeStyle=orthogonalEdgeStyle;rounded=0;orthogonalLoop=1;jettySize=auto;html=1;exitX=1;exitY=0.5;exitDx=0;exitDy=0;fontSize=10;entryX=0;entryY=0.5;entryDx=0;entryDy=0;" edge="1" parent="SP4KQLIQNHfuo-DQ70CP-27" target="SP4KQLIQNHfuo-DQ70CP-181">
          <mxGeometry relative="1" as="geometry">
            <mxPoint x="2050" y="189" as="sourcePoint" />
            <mxPoint x="2116" y="310" as="targetPoint" />
            <Array as="points">
              <mxPoint x="2060" y="189" />
              <mxPoint x="2060" y="68" />
            </Array>
          </mxGeometry>
        </mxCell>
        <mxCell id="SP4KQLIQNHfuo-DQ70CP-184" value="" style="endArrow=classic;html=1;rounded=0;fontSize=12;startSize=8;endSize=8;curved=1;exitX=1;exitY=0.5;exitDx=0;exitDy=0;entryX=-0.032;entryY=0.542;entryDx=0;entryDy=0;entryPerimeter=0;" edge="1" parent="SP4KQLIQNHfuo-DQ70CP-27" target="SP4KQLIQNHfuo-DQ70CP-33">
          <mxGeometry width="50" height="50" relative="1" as="geometry">
            <mxPoint x="2170" y="67.9" as="sourcePoint" />
            <mxPoint x="2198" y="67.9" as="targetPoint" />
          </mxGeometry>
        </mxCell>
        <mxCell id="SP4KQLIQNHfuo-DQ70CP-51" value="Sharepoi&lt;span style=&quot;background-color: transparent; color: light-dark(rgb(0, 0, 0), rgb(255, 255, 255));&quot;&gt;nt&lt;/span&gt;" style="swimlane;html=1;startSize=20;horizontal=0;fillColor=#99FF99;" vertex="1" parent="SP4KQLIQNHfuo-DQ70CP-25">
          <mxGeometry y="170" width="2270" height="150" as="geometry">
            <mxRectangle y="320" width="760" height="20" as="alternateBounds" />
          </mxGeometry>
        </mxCell>
        <mxCell id="SP4KQLIQNHfuo-DQ70CP-67" value="Tratamento do Mapa de Centro de Custos" style="rounded=1;whiteSpace=wrap;html=1;shadow=0;labelBackgroundColor=none;strokeWidth=1;fontFamily=Verdana;fontSize=8;align=center;fillColor=#CCE5FF;" vertex="1" parent="SP4KQLIQNHfuo-DQ70CP-51">
          <mxGeometry x="95" y="39" width="70" height="37" as="geometry" />
        </mxCell>
        <mxCell id="SP4KQLIQNHfuo-DQ70CP-68" value="" style="shape=umlActor;verticalLabelPosition=bottom;verticalAlign=top;html=1;outlineConnect=0;" vertex="1" parent="SP4KQLIQNHfuo-DQ70CP-51">
          <mxGeometry x="155" y="61.5" width="10" height="14" as="geometry" />
        </mxCell>
        <mxCell id="SP4KQLIQNHfuo-DQ70CP-76" style="edgeStyle=orthogonalEdgeStyle;rounded=0;orthogonalLoop=1;jettySize=auto;html=1;exitX=1;exitY=0.5;exitDx=0;exitDy=0;fontSize=10;entryX=0;entryY=0.5;entryDx=0;entryDy=0;" edge="1" parent="SP4KQLIQNHfuo-DQ70CP-51" target="SP4KQLIQNHfuo-DQ70CP-72">
          <mxGeometry relative="1" as="geometry">
            <mxPoint x="140" y="39" as="sourcePoint" />
            <mxPoint x="206" y="160" as="targetPoint" />
            <Array as="points">
              <mxPoint x="150" y="39" />
              <mxPoint x="150" y="-82" />
            </Array>
          </mxGeometry>
        </mxCell>
        <mxCell id="SP4KQLIQNHfuo-DQ70CP-78" value="Tratamento do Mapa de Contas Contábeis" style="rounded=1;whiteSpace=wrap;html=1;shadow=0;labelBackgroundColor=none;strokeWidth=1;fontFamily=Verdana;fontSize=8;align=center;fillColor=#CCE5FF;" vertex="1" parent="SP4KQLIQNHfuo-DQ70CP-51">
          <mxGeometry x="270" y="38.5" width="70" height="37" as="geometry" />
        </mxCell>
        <mxCell id="SP4KQLIQNHfuo-DQ70CP-79" value="" style="shape=umlActor;verticalLabelPosition=bottom;verticalAlign=top;html=1;outlineConnect=0;" vertex="1" parent="SP4KQLIQNHfuo-DQ70CP-51">
          <mxGeometry x="330" y="61" width="10" height="14" as="geometry" />
        </mxCell>
        <mxCell id="SP4KQLIQNHfuo-DQ70CP-96" value="Salvar arquivo de Cargos" style="rounded=1;whiteSpace=wrap;html=1;shadow=0;labelBackgroundColor=none;strokeWidth=1;fontFamily=Verdana;fontSize=8;align=center;fillColor=#CCE5FF;" vertex="1" parent="SP4KQLIQNHfuo-DQ70CP-51">
          <mxGeometry x="525" y="38" width="70" height="37" as="geometry" />
        </mxCell>
        <mxCell id="SP4KQLIQNHfuo-DQ70CP-97" value="" style="shape=umlActor;verticalLabelPosition=bottom;verticalAlign=top;html=1;outlineConnect=0;" vertex="1" parent="SP4KQLIQNHfuo-DQ70CP-51">
          <mxGeometry x="580" y="61.5" width="10" height="14" as="geometry" />
        </mxCell>
        <mxCell id="SP4KQLIQNHfuo-DQ70CP-99" value="Salvar arquivo de Eventos" style="rounded=1;whiteSpace=wrap;html=1;shadow=0;labelBackgroundColor=none;strokeWidth=1;fontFamily=Verdana;fontSize=8;align=center;fillColor=#CCE5FF;" vertex="1" parent="SP4KQLIQNHfuo-DQ70CP-51">
          <mxGeometry x="692.5" y="38" width="70" height="37" as="geometry" />
        </mxCell>
        <mxCell id="SP4KQLIQNHfuo-DQ70CP-100" value="" style="shape=umlActor;verticalLabelPosition=bottom;verticalAlign=top;html=1;outlineConnect=0;" vertex="1" parent="SP4KQLIQNHfuo-DQ70CP-51">
          <mxGeometry x="747.5" y="61.5" width="10" height="14" as="geometry" />
        </mxCell>
        <mxCell id="SP4KQLIQNHfuo-DQ70CP-101" style="edgeStyle=orthogonalEdgeStyle;rounded=0;orthogonalLoop=1;jettySize=auto;html=1;exitX=0.75;exitY=0;exitDx=0;exitDy=0;fontSize=10;entryX=0;entryY=0.75;entryDx=0;entryDy=0;" edge="1" parent="SP4KQLIQNHfuo-DQ70CP-51" target="SP4KQLIQNHfuo-DQ70CP-99">
          <mxGeometry relative="1" as="geometry">
            <mxPoint x="670.5" y="207" as="sourcePoint" />
            <mxPoint x="687.5" y="60" as="targetPoint" />
            <Array as="points">
              <mxPoint x="667.5" y="207" />
              <mxPoint x="667.5" y="66" />
              <mxPoint x="677.5" y="66" />
            </Array>
          </mxGeometry>
        </mxCell>
        <mxCell id="SP4KQLIQNHfuo-DQ70CP-108" style="edgeStyle=orthogonalEdgeStyle;rounded=0;orthogonalLoop=1;jettySize=auto;html=1;exitX=1;exitY=0.5;exitDx=0;exitDy=0;fontSize=10;entryX=0.5;entryY=0;entryDx=0;entryDy=0;" edge="1" parent="SP4KQLIQNHfuo-DQ70CP-51" target="SP4KQLIQNHfuo-DQ70CP-109">
          <mxGeometry relative="1" as="geometry">
            <mxPoint x="762.5" y="-81.5" as="sourcePoint" />
            <mxPoint x="828.5" y="39.5" as="targetPoint" />
            <Array as="points">
              <mxPoint x="807.5" y="-81.5" />
            </Array>
          </mxGeometry>
        </mxCell>
        <mxCell id="SP4KQLIQNHfuo-DQ70CP-109" value="Criar Arquivo de Paradigma" style="rounded=1;whiteSpace=wrap;html=1;shadow=0;labelBackgroundColor=none;strokeWidth=1;fontFamily=Verdana;fontSize=8;align=center;fillColor=#CCE5FF;" vertex="1" parent="SP4KQLIQNHfuo-DQ70CP-51">
          <mxGeometry x="772.5" y="38" width="70" height="37" as="geometry" />
        </mxCell>
        <mxCell id="SP4KQLIQNHfuo-DQ70CP-110" value="" style="shape=umlActor;verticalLabelPosition=bottom;verticalAlign=top;html=1;outlineConnect=0;" vertex="1" parent="SP4KQLIQNHfuo-DQ70CP-51">
          <mxGeometry x="832.5" y="60.5" width="10" height="14" as="geometry" />
        </mxCell>
        <mxCell id="SP4KQLIQNHfuo-DQ70CP-114" style="edgeStyle=orthogonalEdgeStyle;rounded=0;orthogonalLoop=1;jettySize=auto;html=1;exitX=1;exitY=0.5;exitDx=0;exitDy=0;fontSize=10;entryX=0.5;entryY=0;entryDx=0;entryDy=0;" edge="1" parent="SP4KQLIQNHfuo-DQ70CP-51" target="SP4KQLIQNHfuo-DQ70CP-115">
          <mxGeometry relative="1" as="geometry">
            <mxPoint x="930" y="-81.5" as="sourcePoint" />
            <mxPoint x="996" y="39.5" as="targetPoint" />
            <Array as="points">
              <mxPoint x="975" y="-81.5" />
            </Array>
          </mxGeometry>
        </mxCell>
        <mxCell id="SP4KQLIQNHfuo-DQ70CP-115" value="Criar Arquivo de Premissas Gerais" style="rounded=1;whiteSpace=wrap;html=1;shadow=0;labelBackgroundColor=none;strokeWidth=1;fontFamily=Verdana;fontSize=8;align=center;fillColor=#CCE5FF;" vertex="1" parent="SP4KQLIQNHfuo-DQ70CP-51">
          <mxGeometry x="940" y="38" width="70" height="37" as="geometry" />
        </mxCell>
        <mxCell id="SP4KQLIQNHfuo-DQ70CP-116" value="" style="shape=umlActor;verticalLabelPosition=bottom;verticalAlign=top;html=1;outlineConnect=0;" vertex="1" parent="SP4KQLIQNHfuo-DQ70CP-51">
          <mxGeometry x="1000" y="60.5" width="10" height="14" as="geometry" />
        </mxCell>
        <mxCell id="SP4KQLIQNHfuo-DQ70CP-142" style="edgeStyle=orthogonalEdgeStyle;rounded=0;orthogonalLoop=1;jettySize=auto;html=1;exitX=1;exitY=0.5;exitDx=0;exitDy=0;fontSize=10;entryX=0.5;entryY=0;entryDx=0;entryDy=0;" edge="1" parent="SP4KQLIQNHfuo-DQ70CP-51" target="SP4KQLIQNHfuo-DQ70CP-143">
          <mxGeometry relative="1" as="geometry">
            <mxPoint x="1220" y="-82" as="sourcePoint" />
            <mxPoint x="1286" y="39" as="targetPoint" />
            <Array as="points">
              <mxPoint x="1265" y="-82" />
            </Array>
          </mxGeometry>
        </mxCell>
        <mxCell id="SP4KQLIQNHfuo-DQ70CP-143" value="Criar Arquivo de Carga de Vagas em Aberto" style="rounded=1;whiteSpace=wrap;html=1;shadow=0;labelBackgroundColor=none;strokeWidth=1;fontFamily=Verdana;fontSize=8;align=center;fillColor=#CCE5FF;" vertex="1" parent="SP4KQLIQNHfuo-DQ70CP-51">
          <mxGeometry x="1230" y="37.5" width="70" height="37" as="geometry" />
        </mxCell>
        <mxCell id="SP4KQLIQNHfuo-DQ70CP-144" value="" style="shape=umlActor;verticalLabelPosition=bottom;verticalAlign=top;html=1;outlineConnect=0;" vertex="1" parent="SP4KQLIQNHfuo-DQ70CP-51">
          <mxGeometry x="1290" y="60" width="10" height="14" as="geometry" />
        </mxCell>
        <mxCell id="SP4KQLIQNHfuo-DQ70CP-151" value="Salvar arquivo de colaboradores" style="rounded=1;whiteSpace=wrap;html=1;shadow=0;labelBackgroundColor=none;strokeWidth=1;fontFamily=Verdana;fontSize=8;align=center;fillColor=#CCE5FF;" vertex="1" parent="SP4KQLIQNHfuo-DQ70CP-51">
          <mxGeometry x="1475.02" y="37.5" width="64.98" height="62.5" as="geometry" />
        </mxCell>
        <mxCell id="SP4KQLIQNHfuo-DQ70CP-152" value="" style="shape=umlActor;verticalLabelPosition=bottom;verticalAlign=top;html=1;outlineConnect=0;" vertex="1" parent="SP4KQLIQNHfuo-DQ70CP-51">
          <mxGeometry x="1523" y="85" width="10" height="14" as="geometry" />
        </mxCell>
        <mxCell id="SP4KQLIQNHfuo-DQ70CP-153" style="edgeStyle=orthogonalEdgeStyle;rounded=0;orthogonalLoop=1;jettySize=auto;html=1;exitX=0.75;exitY=0;exitDx=0;exitDy=0;fontSize=10;" edge="1" parent="SP4KQLIQNHfuo-DQ70CP-51">
          <mxGeometry relative="1" as="geometry">
            <mxPoint x="1453.02" y="206.5" as="sourcePoint" />
            <mxPoint x="1475" y="69" as="targetPoint" />
            <Array as="points">
              <mxPoint x="1450" y="207" />
              <mxPoint x="1450" y="69" />
              <mxPoint x="1475" y="69" />
            </Array>
          </mxGeometry>
        </mxCell>
        <mxCell id="SP4KQLIQNHfuo-DQ70CP-156" value="Tratar arquivo de colaboradores" style="rounded=1;whiteSpace=wrap;html=1;shadow=0;labelBackgroundColor=none;strokeWidth=1;fontFamily=Verdana;fontSize=8;align=center;fillColor=#CCE5FF;" vertex="1" parent="SP4KQLIQNHfuo-DQ70CP-51">
          <mxGeometry x="1568" y="39" width="70" height="60" as="geometry" />
        </mxCell>
        <mxCell id="SP4KQLIQNHfuo-DQ70CP-157" value="" style="shape=umlActor;verticalLabelPosition=bottom;verticalAlign=top;html=1;outlineConnect=0;" vertex="1" parent="SP4KQLIQNHfuo-DQ70CP-51">
          <mxGeometry x="1620" y="85" width="10" height="14" as="geometry" />
        </mxCell>
        <mxCell id="SP4KQLIQNHfuo-DQ70CP-158" value="" style="endArrow=classic;html=1;rounded=0;fontSize=12;startSize=8;endSize=8;curved=1;exitX=1;exitY=0.5;exitDx=0;exitDy=0;entryX=0;entryY=0.5;entryDx=0;entryDy=0;" edge="1" parent="SP4KQLIQNHfuo-DQ70CP-51" source="SP4KQLIQNHfuo-DQ70CP-151" target="SP4KQLIQNHfuo-DQ70CP-156">
          <mxGeometry width="50" height="50" relative="1" as="geometry">
            <mxPoint x="1530" y="39" as="sourcePoint" />
            <mxPoint x="1580" y="-11" as="targetPoint" />
          </mxGeometry>
        </mxCell>
        <mxCell id="SP4KQLIQNHfuo-DQ70CP-164" style="edgeStyle=orthogonalEdgeStyle;rounded=0;orthogonalLoop=1;jettySize=auto;html=1;exitX=1;exitY=0.5;exitDx=0;exitDy=0;fontSize=10;entryX=0.555;entryY=0.011;entryDx=0;entryDy=0;entryPerimeter=0;" edge="1" parent="SP4KQLIQNHfuo-DQ70CP-51" target="SP4KQLIQNHfuo-DQ70CP-165">
          <mxGeometry relative="1" as="geometry">
            <mxPoint x="1680" y="-82.5" as="sourcePoint" />
            <mxPoint x="1746" y="38.5" as="targetPoint" />
            <Array as="points">
              <mxPoint x="1724" y="-82" />
            </Array>
          </mxGeometry>
        </mxCell>
        <mxCell id="SP4KQLIQNHfuo-DQ70CP-165" value="Atualização do arquivo de colaboradores por centro de custos incluindo novas vagas" style="rounded=1;whiteSpace=wrap;html=1;shadow=0;labelBackgroundColor=none;strokeWidth=1;fontFamily=Verdana;fontSize=8;align=center;fillColor=#CCE5FF;" vertex="1" parent="SP4KQLIQNHfuo-DQ70CP-51">
          <mxGeometry x="1680" y="37" width="80" height="63" as="geometry" />
        </mxCell>
        <mxCell id="SP4KQLIQNHfuo-DQ70CP-166" value="" style="shape=umlActor;verticalLabelPosition=bottom;verticalAlign=top;html=1;outlineConnect=0;" vertex="1" parent="SP4KQLIQNHfuo-DQ70CP-51">
          <mxGeometry x="1744" y="86" width="10" height="14" as="geometry" />
        </mxCell>
        <mxCell id="SP4KQLIQNHfuo-DQ70CP-170" style="edgeStyle=orthogonalEdgeStyle;rounded=0;orthogonalLoop=1;jettySize=auto;html=1;exitX=1;exitY=0.5;exitDx=0;exitDy=0;fontSize=10;entryX=0.5;entryY=0;entryDx=0;entryDy=0;" edge="1" parent="SP4KQLIQNHfuo-DQ70CP-51" target="SP4KQLIQNHfuo-DQ70CP-171">
          <mxGeometry relative="1" as="geometry">
            <mxPoint x="1830" y="-81" as="sourcePoint" />
            <mxPoint x="1896" y="40" as="targetPoint" />
            <Array as="points">
              <mxPoint x="1875" y="-81" />
            </Array>
          </mxGeometry>
        </mxCell>
        <mxCell id="SP4KQLIQNHfuo-DQ70CP-171" value="Salvar arquivo de aumento de quadro" style="rounded=1;whiteSpace=wrap;html=1;shadow=0;labelBackgroundColor=none;strokeWidth=1;fontFamily=Verdana;fontSize=8;align=center;fillColor=#CCE5FF;" vertex="1" parent="SP4KQLIQNHfuo-DQ70CP-51">
          <mxGeometry x="1840" y="38.5" width="70" height="37" as="geometry" />
        </mxCell>
        <mxCell id="SP4KQLIQNHfuo-DQ70CP-172" value="" style="shape=umlActor;verticalLabelPosition=bottom;verticalAlign=top;html=1;outlineConnect=0;" vertex="1" parent="SP4KQLIQNHfuo-DQ70CP-51">
          <mxGeometry x="1900" y="61" width="10" height="14" as="geometry" />
        </mxCell>
        <mxCell id="SP4KQLIQNHfuo-DQ70CP-178" style="edgeStyle=orthogonalEdgeStyle;rounded=0;orthogonalLoop=1;jettySize=auto;html=1;exitX=1;exitY=0.5;exitDx=0;exitDy=0;fontSize=10;entryX=0.5;entryY=0;entryDx=0;entryDy=0;" edge="1" parent="SP4KQLIQNHfuo-DQ70CP-51" target="SP4KQLIQNHfuo-DQ70CP-179">
          <mxGeometry relative="1" as="geometry">
            <mxPoint x="2000" y="-82.5" as="sourcePoint" />
            <mxPoint x="2066" y="38.5" as="targetPoint" />
            <Array as="points">
              <mxPoint x="2045" y="-82.5" />
            </Array>
          </mxGeometry>
        </mxCell>
        <mxCell id="SP4KQLIQNHfuo-DQ70CP-179" value="Criar planilhas de cálculos de Benefícios" style="rounded=1;whiteSpace=wrap;html=1;shadow=0;labelBackgroundColor=none;strokeWidth=1;fontFamily=Verdana;fontSize=8;align=center;fillColor=#CCE5FF;" vertex="1" parent="SP4KQLIQNHfuo-DQ70CP-51">
          <mxGeometry x="2010" y="37" width="70" height="37" as="geometry" />
        </mxCell>
        <mxCell id="SP4KQLIQNHfuo-DQ70CP-180" value="" style="shape=umlActor;verticalLabelPosition=bottom;verticalAlign=top;html=1;outlineConnect=0;" vertex="1" parent="SP4KQLIQNHfuo-DQ70CP-51">
          <mxGeometry x="2070" y="59.5" width="10" height="14" as="geometry" />
        </mxCell>
        <mxCell id="SP4KQLIQNHfuo-DQ70CP-53" value="Sênior" style="swimlane;html=1;startSize=20;horizontal=0;fillColor=#B5739D;" vertex="1" parent="SP4KQLIQNHfuo-DQ70CP-25">
          <mxGeometry y="320" width="2270" height="150" as="geometry">
            <mxRectangle y="320" width="760" height="20" as="alternateBounds" />
          </mxGeometry>
        </mxCell>
        <mxCell id="SP4KQLIQNHfuo-DQ70CP-84" value="Extração Mapa de Cargos" style="rounded=1;whiteSpace=wrap;html=1;shadow=0;labelBackgroundColor=none;strokeWidth=1;fontFamily=Verdana;fontSize=8;align=center;fillColor=#CCE5FF;" vertex="1" parent="SP4KQLIQNHfuo-DQ70CP-53">
          <mxGeometry x="450" y="56.5" width="70" height="37" as="geometry" />
        </mxCell>
        <mxCell id="SP4KQLIQNHfuo-DQ70CP-85" value="" style="shape=umlActor;verticalLabelPosition=bottom;verticalAlign=top;html=1;outlineConnect=0;" vertex="1" parent="SP4KQLIQNHfuo-DQ70CP-53">
          <mxGeometry x="510" y="79" width="10" height="14" as="geometry" />
        </mxCell>
        <mxCell id="SP4KQLIQNHfuo-DQ70CP-90" style="edgeStyle=orthogonalEdgeStyle;rounded=0;orthogonalLoop=1;jettySize=auto;html=1;exitX=1;exitY=0.5;exitDx=0;exitDy=0;fontSize=10;entryX=0.371;entryY=0.041;entryDx=0;entryDy=0;entryPerimeter=0;" edge="1" parent="SP4KQLIQNHfuo-DQ70CP-53" target="SP4KQLIQNHfuo-DQ70CP-91">
          <mxGeometry relative="1" as="geometry">
            <mxPoint x="594" y="-231" as="sourcePoint" />
            <mxPoint x="639" y="-111" as="targetPoint" />
            <Array as="points">
              <mxPoint x="639" y="-231" />
            </Array>
          </mxGeometry>
        </mxCell>
        <mxCell id="SP4KQLIQNHfuo-DQ70CP-91" value="Extração Mapa de Eventos" style="rounded=1;whiteSpace=wrap;html=1;shadow=0;labelBackgroundColor=none;strokeWidth=1;fontFamily=Verdana;fontSize=8;align=center;fillColor=#CCE5FF;" vertex="1" parent="SP4KQLIQNHfuo-DQ70CP-53">
          <mxGeometry x="614" y="56.5" width="70" height="37" as="geometry" />
        </mxCell>
        <mxCell id="SP4KQLIQNHfuo-DQ70CP-92" value="" style="shape=umlActor;verticalLabelPosition=bottom;verticalAlign=top;html=1;outlineConnect=0;" vertex="1" parent="SP4KQLIQNHfuo-DQ70CP-53">
          <mxGeometry x="674" y="79" width="10" height="14" as="geometry" />
        </mxCell>
        <mxCell id="SP4KQLIQNHfuo-DQ70CP-148" style="edgeStyle=orthogonalEdgeStyle;rounded=0;orthogonalLoop=1;jettySize=auto;html=1;exitX=1;exitY=0.5;exitDx=0;exitDy=0;fontSize=10;entryX=0.371;entryY=0.041;entryDx=0;entryDy=0;entryPerimeter=0;" edge="1" parent="SP4KQLIQNHfuo-DQ70CP-53" target="SP4KQLIQNHfuo-DQ70CP-149">
          <mxGeometry relative="1" as="geometry">
            <mxPoint x="1390" y="-231.5" as="sourcePoint" />
            <mxPoint x="1435" y="-111.5" as="targetPoint" />
            <Array as="points">
              <mxPoint x="1435" y="-231.5" />
            </Array>
          </mxGeometry>
        </mxCell>
        <mxCell id="SP4KQLIQNHfuo-DQ70CP-149" value="Extração listagem de colaborador" style="rounded=1;whiteSpace=wrap;html=1;shadow=0;labelBackgroundColor=none;strokeWidth=1;fontFamily=Verdana;fontSize=8;align=center;fillColor=#CCE5FF;" vertex="1" parent="SP4KQLIQNHfuo-DQ70CP-53">
          <mxGeometry x="1410" y="56" width="70" height="37" as="geometry" />
        </mxCell>
        <mxCell id="SP4KQLIQNHfuo-DQ70CP-150" value="" style="shape=umlActor;verticalLabelPosition=bottom;verticalAlign=top;html=1;outlineConnect=0;" vertex="1" parent="SP4KQLIQNHfuo-DQ70CP-53">
          <mxGeometry x="1470" y="78.5" width="10" height="14" as="geometry" />
        </mxCell>
        <mxCell id="SP4KQLIQNHfuo-DQ70CP-65" style="edgeStyle=orthogonalEdgeStyle;rounded=0;orthogonalLoop=1;jettySize=auto;html=1;exitX=1;exitY=0.5;exitDx=0;exitDy=0;fontSize=10;" edge="1" parent="SP4KQLIQNHfuo-DQ70CP-25" source="SP4KQLIQNHfuo-DQ70CP-28">
          <mxGeometry relative="1" as="geometry">
            <mxPoint x="100" y="287" as="sourcePoint" />
            <mxPoint x="130" y="209" as="targetPoint" />
          </mxGeometry>
        </mxCell>
        <mxCell id="SP4KQLIQNHfuo-DQ70CP-89" style="edgeStyle=orthogonalEdgeStyle;rounded=0;orthogonalLoop=1;jettySize=auto;html=1;exitX=0;exitY=0.25;exitDx=0;exitDy=0;fontSize=10;entryX=0;entryY=0.5;entryDx=0;entryDy=0;" edge="1" parent="SP4KQLIQNHfuo-DQ70CP-25" target="SP4KQLIQNHfuo-DQ70CP-87" source="SP4KQLIQNHfuo-DQ70CP-96">
          <mxGeometry relative="1" as="geometry">
            <mxPoint x="475" y="209" as="sourcePoint" />
            <mxPoint x="541" y="330" as="targetPoint" />
            <Array as="points">
              <mxPoint x="500" y="218" />
              <mxPoint x="500" y="88" />
            </Array>
          </mxGeometry>
        </mxCell>
        <mxCell id="SP4KQLIQNHfuo-DQ70CP-98" style="edgeStyle=orthogonalEdgeStyle;rounded=0;orthogonalLoop=1;jettySize=auto;html=1;exitX=0.75;exitY=0;exitDx=0;exitDy=0;fontSize=10;entryX=0;entryY=0.75;entryDx=0;entryDy=0;" edge="1" parent="SP4KQLIQNHfuo-DQ70CP-25" source="SP4KQLIQNHfuo-DQ70CP-84" target="SP4KQLIQNHfuo-DQ70CP-96">
          <mxGeometry relative="1" as="geometry">
            <mxPoint x="480" y="519" as="sourcePoint" />
            <mxPoint x="520" y="230" as="targetPoint" />
            <Array as="points">
              <mxPoint x="500" y="377" />
              <mxPoint x="500" y="236" />
              <mxPoint x="510" y="236" />
            </Array>
          </mxGeometry>
        </mxCell>
      </root>
    </mxGraphModel>
  </diagram>
</mxfile>
